<?xml version="1.0" encoding="UTF-8"?>
<svg width="256px" height="256px" viewBox="0 0 256 256" version="1.1" xmlns="http://www.w3.org/2000/svg" xmlns:xlink="http://www.w3.org/1999/xlink">
    <title>Artboard</title>
    <g id="Artboard" stroke="none" stroke-width="1" fill="none" fill-rule="evenodd">
        <g id="3-REX-01" transform="translate(6.000000, 52.000000)" fill-rule="nonzero">
            <g id="g10" transform="translate(121.500000, 76.000000) scale(-1, 1) rotate(-180.000000) translate(-121.500000, -76.000000) ">
                <g id="g12" transform="translate(-0.000000, 0.000000)">
                    <polyline id="path16" fill="#00AEEF" points="90.769043 36.6428571 90.769043 42.75 78.6665039 42.75 78.6665039 61.0714286 72.6152344 61.0714286 72.6152344 67.1785714 66.5639648 67.1785714 66.5639648 73.2857143 60.5126953 73.2857143 54.4614258 73.2857143 48.4101563 73.2857143 48.4101563 67.1785714 42.3588867 67.1785714 36.3076172 67.1785714 30.2563477 67.1785714 30.2563477 73.2857143 24.2050781 73.2857143 24.2050781 79.3928571 18.1538086 79.3928571 18.1538086 85.5 12.1025391 85.5 6.05126953 85.5 1.2021346e-14 85.5 1.2021346e-14 79.3928571 6.05126953 79.3928571 12.1025391 79.3928571 12.1025391 73.2857143 12.1025391 67.1785714 18.1538086 67.1785714 18.1538086 61.0714286 24.2050781 61.0714286 24.2050781 54.9642857 24.2050781 48.8571429 30.2563477 48.8571429 30.2563477 42.75 36.3076172 42.75 36.3076172 36.6428571 36.3076172 30.5357143 42.3588867 30.5357143 42.3588867 24.4285714 48.4101563 24.4285714 48.4101563 18.3214286 48.4101563 12.2142857 48.4101563 6.10714286 54.4614258 6.10714286 54.4614258 5.68434189e-14 60.5126953 5.68434189e-14 66.5639648 5.68434189e-14 66.5639648 6.10714286 60.5126953 6.10714286 60.5126953 12.2142857 66.5639648 12.2142857 66.5639648 18.3214286 66.5639648 24.4285714 72.6152344 24.4285714 72.6152344 30.5357143 78.6665039 30.5357143 78.6665039 24.4285714 72.6152344 24.4285714 72.6152344 18.3214286 72.6152344 12.2142857 72.6152344 6.10714286 78.6665039 6.10714286 78.6665039 5.68434189e-14 84.7177734 5.68434189e-14 90.769043 5.68434189e-14 90.769043 6.10714286 84.7177734 6.10714286 84.7177734 12.2142857 90.769043 12.2142857 90.769043 18.3214286 90.769043 24.4285714 96.8203125 24.4285714 96.8203125 30.5357143 90.769043 30.5357143 90.769043 36.6428571"></polyline>
                    <path d="M90.4921875,127.87 L90.4921875,121.79 L84.4013672,121.79 L84.4013672,127.87 L90.4921875,127.87 Z M108.764648,85.31 L108.764648,91.39 L102.673828,91.39 L102.673828,103.55 L96.5830078,103.55 L96.5830078,109.63 L96.5830078,115.71 L96.5830078,121.79 L96.5830078,127.87 L102.673828,127.87 L102.673828,133.95 L96.5830078,133.95 L90.4921875,133.95 L84.4013672,133.95 L78.3105469,133.95 L72.2197266,133.95 L66.1289063,133.95 L60.0380859,133.95 L53.9472656,133.95 L47.8564453,133.95 L47.8564453,127.87 L41.765625,127.87 L41.765625,121.79 L41.765625,115.71 L41.765625,109.63 L41.765625,103.55 L47.8564453,103.55 L53.9472656,103.55 L60.0380859,103.55 L66.1289063,103.55 L72.2197266,103.55 L78.3105469,103.55 L78.3105469,97.47 L72.2197266,97.47 L66.1289063,97.47 L60.0380859,97.47 L53.9472656,97.47 L47.8564453,97.47 L47.8564453,91.39 L53.9472656,91.39 L60.0380859,91.39 L66.1289063,91.39 L72.2197266,91.39 L78.3105469,91.39 L84.4013672,91.39 L84.4013672,85.31 L84.4013672,79.23 L90.4921875,79.23 L90.4921875,73.15 L96.5830078,73.15 L102.673828,73.15 L108.764648,73.15 L108.764648,79.23 L114.855469,79.23 L114.855469,85.31 L108.764648,85.31" id="path18" fill="#00AEEF"></path>
                    <polyline id="path20" fill="#00AEEF" points="84.290625 139.65 102.515625 139.65 102.515625 152 96.440625 152 96.440625 145.825 90.365625 145.825 90.365625 152 84.290625 152 84.290625 145.825 78.215625 145.825 78.215625 152 72.140625 152 72.140625 145.825 72.140625 139.65 78.215625 139.65 84.290625 139.65"></polyline>
                    <polyline id="path22" fill="#EC008C" points="151.519043 36.6428571 151.519043 42.75 139.416504 42.75 139.416504 61.0714286 133.365234 61.0714286 133.365234 67.1785714 127.313965 67.1785714 127.313965 73.2857143 121.262695 73.2857143 115.211426 73.2857143 109.160156 73.2857143 109.160156 67.1785714 103.108887 67.1785714 97.0576172 67.1785714 91.0063477 67.1785714 91.0063477 73.2857143 84.9550781 73.2857143 84.9550781 79.3928571 78.9038086 79.3928571 78.9038086 85.5 72.8525391 85.5 66.8012695 85.5 60.75 85.5 60.75 79.3928571 66.8012695 79.3928571 72.8525391 79.3928571 72.8525391 73.2857143 72.8525391 67.1785714 78.9038086 67.1785714 78.9038086 61.0714286 84.9550781 61.0714286 84.9550781 54.9642857 84.9550781 48.8571429 91.0063477 48.8571429 91.0063477 42.75 97.0576172 42.75 97.0576172 36.6428571 97.0576172 30.5357143 103.108887 30.5357143 103.108887 24.4285714 109.160156 24.4285714 109.160156 18.3214286 109.160156 12.2142857 109.160156 6.10714286 115.211426 6.10714286 115.211426 5.68434189e-14 121.262695 5.68434189e-14 127.313965 5.68434189e-14 127.313965 6.10714286 121.262695 6.10714286 121.262695 12.2142857 127.313965 12.2142857 127.313965 18.3214286 127.313965 24.4285714 133.365234 24.4285714 133.365234 30.5357143 139.416504 30.5357143 139.416504 24.4285714 133.365234 24.4285714 133.365234 18.3214286 133.365234 12.2142857 133.365234 6.10714286 139.416504 6.10714286 139.416504 5.68434189e-14 145.467773 5.68434189e-14 151.519043 5.68434189e-14 151.519043 6.10714286 145.467773 6.10714286 145.467773 12.2142857 151.519043 12.2142857 151.519043 18.3214286 151.519043 24.4285714 157.570312 24.4285714 157.570312 30.5357143 151.519043 30.5357143 151.519043 36.6428571"></polyline>
                    <path d="M151.242188,127.87 L151.242188,121.79 L145.151367,121.79 L145.151367,127.87 L151.242188,127.87 Z M169.514648,85.31 L169.514648,91.39 L163.423828,91.39 L163.423828,103.55 L157.333008,103.55 L157.333008,109.63 L157.333008,115.71 L157.333008,121.79 L157.333008,127.87 L163.423828,127.87 L163.423828,133.95 L157.333008,133.95 L151.242188,133.95 L145.151367,133.95 L139.060547,133.95 L132.969727,133.95 L126.878906,133.95 L120.788086,133.95 L114.697266,133.95 L108.606445,133.95 L108.606445,127.87 L102.515625,127.87 L102.515625,121.79 L102.515625,115.71 L102.515625,109.63 L102.515625,103.55 L108.606445,103.55 L114.697266,103.55 L120.788086,103.55 L126.878906,103.55 L132.969727,103.55 L139.060547,103.55 L139.060547,97.47 L132.969727,97.47 L126.878906,97.47 L120.788086,97.47 L114.697266,97.47 L108.606445,97.47 L108.606445,91.39 L114.697266,91.39 L120.788086,91.39 L126.878906,91.39 L132.969727,91.39 L139.060547,91.39 L145.151367,91.39 L145.151367,85.31 L145.151367,79.23 L151.242188,79.23 L151.242188,73.15 L157.333008,73.15 L163.423828,73.15 L169.514648,73.15 L169.514648,79.23 L175.605469,79.23 L175.605469,85.31 L169.514648,85.31" id="path24" fill="#EC008C"></path>
                    <polyline id="path26" fill="#EC008C" points="145.040625 139.65 163.265625 139.65 163.265625 152 157.190625 152 157.190625 145.825 151.115625 145.825 151.115625 152 145.040625 152 145.040625 145.825 138.965625 145.825 138.965625 152 132.890625 152 132.890625 145.825 132.890625 139.65 138.965625 139.65 145.040625 139.65"></polyline>
                    <path d="M212.625,127.861364 L212.625,121.772727 L206.55,121.772727 L206.55,127.861364 L212.625,127.861364 Z M212.625,42.6204545 L200.475,42.6204545 L200.475,60.8863636 L206.55,60.8863636 L206.55,54.7977273 L206.55,48.7090909 L212.625,48.7090909 L212.625,42.6204545 Z M236.925,115.684091 L236.925,127.861364 L230.85,127.861364 L230.85,133.95 L224.775,133.95 L218.7,133.95 L212.625,133.95 L206.55,133.95 L200.475,133.95 L194.4,133.95 L188.325,133.95 L182.25,133.95 L176.175,133.95 L170.1,133.95 L170.1,127.861364 L164.025,127.861364 L164.025,121.772727 L164.025,115.684091 L164.025,109.595455 L164.025,103.506818 L170.1,103.506818 L176.175,103.506818 L182.25,103.506818 L188.325,103.506818 L194.4,103.506818 L200.475,103.506818 L200.475,97.4181818 L194.4,97.4181818 L188.325,97.4181818 L182.25,97.4181818 L176.175,97.4181818 L170.1,97.4181818 L170.1,91.3295455 L176.175,91.3295455 L182.25,91.3295455 L188.325,91.3295455 L194.4,91.3295455 L200.475,91.3295455 L206.55,91.3295455 L206.55,85.2409091 L200.475,85.2409091 L194.4,85.2409091 L188.325,85.2409091 L182.25,85.2409091 L182.25,79.1522727 L182.25,73.0636364 L176.175,73.0636364 L170.1,73.0636364 L170.1,66.975 L164.025,66.975 L157.95,66.975 L151.875,66.975 L151.875,73.0636364 L145.8,73.0636364 L145.8,79.1522727 L139.725,79.1522727 L139.725,85.2409091 L133.65,85.2409091 L127.575,85.2409091 L121.5,85.2409091 L121.5,79.1522727 L127.575,79.1522727 L133.65,79.1522727 L133.65,73.0636364 L133.65,66.975 L139.725,66.975 L139.725,60.8863636 L145.8,60.8863636 L145.8,54.7977273 L145.8,48.7090909 L151.875,48.7090909 L151.875,42.6204545 L157.95,42.6204545 L157.95,36.5318182 L157.95,30.4431818 L164.025,30.4431818 L164.025,24.3545455 L170.1,24.3545455 L170.1,18.2659091 L170.1,12.1772727 L170.1,6.08863636 L176.175,6.08863636 L176.175,-5.68434189e-14 L182.25,-5.68434189e-14 L188.325,-5.68434189e-14 L188.325,6.08863636 L182.25,6.08863636 L182.25,12.1772727 L188.325,12.1772727 L188.325,18.2659091 L188.325,24.3545455 L194.4,24.3545455 L194.4,30.4431818 L200.475,30.4431818 L200.475,24.3545455 L194.4,24.3545455 L194.4,18.2659091 L194.4,12.1772727 L194.4,6.08863636 L200.475,6.08863636 L200.475,-5.68434189e-14 L206.55,-5.68434189e-14 L212.625,-5.68434189e-14 L212.625,6.08863636 L206.55,6.08863636 L206.55,12.1772727 L212.625,12.1772727 L212.625,18.2659091 L212.625,24.3545455 L218.7,24.3545455 L218.7,30.4431818 L218.7,36.5318182 L224.775,36.5318182 L224.775,42.6204545 L224.775,48.7090909 L224.775,54.7977273 L224.775,60.8863636 L230.85,60.8863636 L230.85,66.975 L230.85,73.0636364 L236.925,73.0636364 L236.925,79.1522727 L236.925,85.2409091 L236.925,91.3295455 L243,91.3295455 L243,97.4181818 L243,103.506818 L243,109.595455 L243,115.684091 L236.925,115.684091" id="path28" fill="#FFDE17"></path>
                    <polyline id="path30" fill="#FFDE17" points="230.660156 48.7666667 230.660156 42.75 243 42.75 243 48.7666667 236.830078 48.7666667 236.830078 54.7833333 236.830078 60.8 230.660156 60.8 230.660156 54.7833333 230.660156 48.7666667"></polyline>
                    <polyline id="path32" fill="#FFDE17" points="205.790625 139.65 224.015625 139.65 224.015625 152 217.940625 152 217.940625 145.825 211.865625 145.825 211.865625 152 205.790625 152 205.790625 145.825 199.715625 145.825 199.715625 152 193.640625 152 193.640625 145.825 193.640625 139.65 199.715625 139.65 205.790625 139.65"></polyline>
                </g>
            </g>
        </g>
    </g>
</svg>